<svg width="698" height="136" viewBox="0 0 698 136" fill="none" xmlns="http://www.w3.org/2000/svg">
<path d="M630.653 115.669V16.9263H649.184V73.0606H660.141L676.778 46.6842H697.068L678.131 75.9012C683.992 78.3359 688.546 82.0782 691.792 87.1281C695.039 92.1779 696.662 97.8139 696.662 104.036V115.669H678.131V104.036C678.131 101.241 677.409 98.7156 675.967 96.4612C674.614 94.1167 672.81 92.2681 670.556 90.9154C668.302 89.5628 665.777 88.8865 662.981 88.8865H649.184V115.669H630.653Z" fill="#1D084C"/>
<path d="M578.777 115.669C586.622 115.669 593.476 114.181 599.337 111.205C605.108 108.139 609.617 103.991 612.863 98.7609C616.02 93.5307 617.598 87.6693 617.598 81.1766C617.598 73.8724 616.11 67.515 613.134 62.1045C610.158 56.6939 606.1 52.5008 600.96 49.525C595.82 46.5492 590.004 45.0613 583.511 45.0613C575.756 45.0613 569.489 46.6844 564.71 49.9308C559.84 53.1771 556.278 57.5506 554.024 63.0513C551.769 68.4619 550.642 74.5036 550.642 81.1766C550.642 82.0784 550.687 83.1605 550.777 84.423C550.868 85.5952 551.003 86.497 551.183 87.1282H597.849C597.128 89.9237 595.91 92.2683 594.197 94.1619C592.394 96.0556 590.184 97.4984 587.569 98.4904C584.864 99.3921 581.843 99.843 578.506 99.843H559.299V115.669H578.777ZM597.984 74.684H569.173C569.354 72.9707 569.669 71.3926 570.12 69.9498C570.571 68.4168 571.202 67.0641 572.014 65.8919C572.825 64.7196 573.772 63.7276 574.854 62.9161C575.936 62.1045 577.199 61.4733 578.642 61.0224C580.085 60.5715 581.663 60.3461 583.376 60.3461C585.63 60.3461 587.659 60.7519 589.463 61.5634C591.176 62.375 592.619 63.4571 593.791 64.8098C594.964 66.1624 595.91 67.6954 596.632 69.4087C597.263 71.1221 597.714 72.8805 597.984 74.684Z" fill="#7552F3"/>
<path d="M513.508 115.669C505.663 115.669 498.81 114.181 492.948 111.205C487.177 108.139 482.668 103.991 479.422 98.7609C476.266 93.5307 474.688 87.6693 474.688 81.1766C474.688 73.8724 476.175 67.515 479.151 62.1045C482.127 56.6939 486.185 52.5008 491.325 49.525C496.465 46.5492 502.281 45.0613 508.774 45.0613C516.529 45.0613 522.796 46.6844 527.576 49.9308C532.445 53.1771 536.007 57.5506 538.261 63.0513C540.516 68.4619 541.643 74.5036 541.643 81.1766C541.643 82.0784 541.598 83.1605 541.508 84.423C541.418 85.5952 541.282 86.497 541.102 87.1282H494.436C495.157 89.9237 496.375 92.2683 498.088 94.1619C499.892 96.0556 502.101 97.4984 504.716 98.4904C507.421 99.3921 510.442 99.843 513.779 99.843H532.986V115.669H513.508ZM494.301 74.684H523.112C522.931 72.9707 522.616 71.3926 522.165 69.9498C521.714 68.4168 521.083 67.0641 520.271 65.8919C519.46 64.7196 518.513 63.7276 517.431 62.9161C516.349 62.1045 515.086 61.4733 513.643 61.0224C512.201 60.5715 510.623 60.3461 508.909 60.3461C506.655 60.3461 504.626 60.7519 502.822 61.5634C501.109 62.375 499.666 63.4571 498.494 64.8098C497.322 66.1624 496.375 67.6954 495.653 69.4087C495.022 71.1221 494.571 72.8805 494.301 74.684Z" fill="#7552F3"/>
<path d="M413.737 115.668C407.695 115.668 402.826 113.82 399.129 110.123C395.432 106.335 393.583 101.511 393.583 95.6494C393.583 92.7637 394.124 90.0585 395.206 87.5336C396.288 85.0086 398.092 82.619 400.617 80.3646L443.495 42.2203C443.676 42.0399 443.811 41.8145 443.901 41.5439C444.081 41.2734 444.172 40.9578 444.172 40.5971C444.172 40.1462 444.036 39.7404 443.766 39.3797C443.495 38.9289 443.18 38.6132 442.819 38.4329C442.458 38.1624 442.052 38.0271 441.602 38.0271H395.882V20.9839H444.442C448.5 20.9839 452.017 21.8406 454.993 23.5539C458.059 25.2672 460.403 27.6118 462.026 30.5876C463.74 33.5634 464.596 37.0352 464.596 41.0029C464.596 43.7983 464.055 46.5036 462.973 49.1187C461.981 51.6436 460.313 53.9431 457.968 56.0171L414.549 94.432C414.459 94.5222 414.323 94.6574 414.143 94.8378C414.053 95.0181 413.963 95.1985 413.873 95.3788C413.873 95.5592 413.873 95.7846 413.873 96.0552C413.873 96.506 413.963 96.9569 414.143 97.4078C414.414 97.7685 414.729 98.0841 415.09 98.3546C415.541 98.535 415.992 98.6252 416.443 98.6252H465.273V115.668H413.737Z" fill="#1D084C"/>
<path d="M361.58 115.668V46.6836H380.246V115.668H361.58ZM370.913 38.4326C367.757 38.4326 365.006 37.3054 362.662 35.051C360.407 32.7064 359.28 29.956 359.28 26.7999C359.28 23.6438 360.407 20.9385 362.662 18.6841C365.006 16.3395 367.757 15.1672 370.913 15.1672C374.069 15.1672 376.774 16.3395 379.029 18.6841C381.373 20.9385 382.546 23.6438 382.546 26.7999C382.546 29.956 381.373 32.7064 379.029 35.051C376.774 37.3054 374.069 38.4326 370.913 38.4326Z" fill="#1D084C"/>
<path d="M325.519 115.668V16.9258H344.05V115.668H325.519Z" fill="#1D084C"/>
<path d="M284.329 115.668C276.484 115.668 269.631 114.18 263.769 111.204C257.998 108.138 253.489 103.99 250.243 98.7599C247.087 93.5297 245.509 87.6683 245.509 81.1757C245.509 73.8714 246.997 67.5141 249.972 62.1035C252.948 56.693 257.006 52.4998 262.146 49.524C267.286 46.5482 273.103 45.0603 279.595 45.0603C287.35 45.0603 293.618 46.6835 298.397 49.9298C303.266 53.1761 306.828 57.5496 309.083 63.0504C311.337 68.4609 312.464 74.5027 312.464 81.1757C312.464 82.0774 312.419 83.1595 312.329 84.422C312.239 85.5943 312.104 86.496 311.923 87.1273H265.257C265.979 89.9227 267.196 92.2673 268.909 94.161C270.713 96.0547 272.922 97.4975 275.537 98.4894C278.243 99.3912 281.263 99.842 284.6 99.842H303.807V115.668H284.329ZM265.122 74.683H293.933C293.753 72.9697 293.437 71.3916 292.986 69.9488C292.535 68.4158 291.904 67.0632 291.093 65.8909C290.281 64.7186 289.334 63.7267 288.252 62.9151C287.17 62.1035 285.908 61.4723 284.465 61.0214C283.022 60.5705 281.444 60.3451 279.73 60.3451C277.476 60.3451 275.447 60.7509 273.644 61.5625C271.93 62.374 270.487 63.4561 269.315 64.8088C268.143 66.1614 267.196 67.6944 266.475 69.4077C265.843 71.1211 265.393 72.8795 265.122 74.683Z" fill="#1D084C"/>
<path d="M176.893 115.668V48.5772C176.893 43.4372 178.11 38.7931 180.545 34.645C183.07 30.4969 186.406 27.2055 190.554 24.7708C194.792 22.2459 199.437 20.9834 204.486 20.9834H238.708V38.0266H206.651C203.765 38.0266 201.285 39.0636 199.211 41.1377C197.227 43.2117 196.235 45.6915 196.235 48.5772V63.8619H234.109V80.9052H196.235V115.668H176.893Z" fill="#1D084C"/>
<rect width="136" height="136" rx="30.5047" fill="#7552F3" fill-opacity="0.16"/>
<path d="M27.9619 72.1537V44.397C27.9619 39.9838 29.0071 35.9964 31.0976 32.4349C33.2655 28.8734 36.1302 26.0474 39.6917 23.9569C43.3307 21.789 47.318 20.7051 51.6538 20.7051H108.223C108.223 28.7868 101.672 35.3383 93.5902 35.3383H53.512C51.0344 35.3383 48.9052 36.2287 47.1245 38.0095C45.4211 39.7902 44.5695 41.9194 44.5695 44.397V57.5205V72.1537H27.9619Z" fill="#7552F3"/>
<path fill-rule="evenodd" clip-rule="evenodd" d="M108.227 65.3686C108.227 70.4712 105.66 74.9742 101.747 77.6568L101.754 77.6668L66.7989 100.323L66.797 100.32V100.971H66.7979V100.323L108.226 100.323V115.211H66.9275C66.8845 115.212 66.8414 115.212 66.7983 115.212C58.5758 115.212 51.9102 108.546 51.9102 100.324C51.9102 95.2206 54.4776 90.7172 58.3913 88.0347L58.3838 88.0238L93.3386 65.3679L93.3394 65.3691V64.0739H78.5059C79.1619 56.4577 85.5522 50.4805 93.3385 50.4805C101.561 50.4805 108.227 57.1461 108.227 65.3686Z" fill="#1D084C"/>
<path d="M27.9619 114.889V74.1736C27.9619 69.7604 29.0071 65.773 31.0976 62.2115C33.2655 58.65 36.1302 55.824 39.6917 53.7335C43.3307 51.5656 47.318 50.4817 51.6538 50.4817H93.2705C101.493 50.4817 108.159 57.1473 108.159 65.3698H53.512C51.0344 65.3698 48.9052 66.2602 47.1245 68.041C45.4211 69.8217 44.5695 71.9509 44.5695 74.4285V87.2971V101.93C44.5695 109.087 38.7676 114.889 31.6107 114.889H27.9619Z" fill="#7552F3"/>
<circle cx="93.6638" cy="57.9258" r="7.44407" fill="#7552F3"/>
</svg>
